<svg xmlns="http://www.w3.org/2000/svg" viewBox="0 0 500 500"><g id="freepik--background-complete--inject-164"><path d="M303.39,382.43s-57.33-91.55-133.32-91.55c-85.19,0-121.92,90.32-121.92,90.32Z" style="fill:#e6e6e6"></path><rect x="416.78" y="398.49" width="33.12" height="0.25" style="fill:#ebebeb"></rect><rect x="322.53" y="401.21" width="8.69" height="0.25" style="fill:#ebebeb"></rect><rect x="396.59" y="389.21" width="19.19" height="0.25" style="fill:#ebebeb"></rect><rect x="52.46" y="390.89" width="43.19" height="0.25" style="fill:#ebebeb"></rect><rect x="104.56" y="390.89" width="6.33" height="0.25" style="fill:#ebebeb"></rect><rect x="131.47" y="395.11" width="93.68" height="0.25" style="fill:#ebebeb"></rect><path d="M237,337.8H43.92a5.71,5.71,0,0,1-5.71-5.71V60.66A5.71,5.71,0,0,1,43.92,55H237a5.71,5.71,0,0,1,5.71,5.71V332.09A5.71,5.71,0,0,1,237,337.8ZM43.92,55.2a5.47,5.47,0,0,0-5.46,5.46V332.09a5.47,5.47,0,0,0,5.46,5.46H237a5.47,5.47,0,0,0,5.46-5.46V60.66A5.47,5.47,0,0,0,237,55.2Z" style="fill:#ebebeb"></path><path d="M453.31,337.8H260.21a5.72,5.72,0,0,1-5.71-5.71V60.66A5.72,5.72,0,0,1,260.21,55h193.1A5.71,5.71,0,0,1,459,60.66V332.09A5.71,5.71,0,0,1,453.31,337.8ZM260.21,55.2a5.47,5.47,0,0,0-5.46,5.46V332.09a5.47,5.47,0,0,0,5.46,5.46h193.1a5.47,5.47,0,0,0,5.46-5.46V60.66a5.47,5.47,0,0,0-5.46-5.46Z" style="fill:#ebebeb"></path><rect y="382.4" width="500" height="0.25" style="fill:#ebebeb"></rect><path d="M38.46,381.93s147.76-99.67,288-99.67c100.09,0,132.57,100.1,132.57,100.1Z" style="fill:#f0f0f0"></path><path d="M278.69,271.18c-2.14-.39-6.27,3.59-8.29,2.76-1.56-.63-1.84-4.83-3.07-6-1.68-1.57-7.74-1.47-8.43-3.66-1.43-4.52,5.3-15,9.9-16.18,3.3-.82,8.53,5.72,11.72,6.91,3,1.09,10.33-.12,12.42,2.24,2.43,2.73,2,11.52,0,14.6-1.26,2-6.2,4.46-8.51,4C282.62,275.49,280.52,271.52,278.69,271.18Z" style="fill:#f0f0f0"></path><path d="M270.52,265.33a44.34,44.34,0,0,0-3.67-3L267,262l4,2.72,1.63-4.81.27.23s-1.31,3.55-1.1,4.81c.43,2.71,6.1,8.75,6.1,8.75h0s4.07-4.64,4.83-6.52c.62-1.56.86-6.66.86-6.66l.27.05-.35,6,6-4.93.11.33a67.89,67.89,0,0,0-6.17,5.43,59.17,59.17,0,0,0-3.89,6.39A4.64,4.64,0,0,0,279,276l.49,16.89h-2.82l.47-16.24a5.86,5.86,0,0,0-1-3A65.4,65.4,0,0,0,270.52,265.33Z" style="fill:#e0e0e0"></path><path d="M422.76,310.22c2.15-.39,6.27,3.59,8.3,2.76,1.55-.63,1.84-4.83,3.07-6,1.67-1.57,7.74-1.47,8.43-3.66,1.43-4.53-5.3-15-9.9-16.18-3.3-.83-8.53,5.72-11.72,6.9-3,1.1-10.33-.12-12.43,2.25-2.42,2.73-2,11.52,0,14.6,1.26,2,6.21,4.45,8.52,4C418.84,314.53,420.94,310.55,422.76,310.22Z" style="fill:#f5f5f5"></path><path d="M418.68,304.37a42.94,42.94,0,0,0-3.67-3l.11-.33,4,2.72,1.63-4.81.27.22s-1.31,3.56-1.1,4.81c.44,2.71,6.11,8.76,6.11,8.76h0s4.06-4.64,4.82-6.53c.63-1.55.86-6.65.86-6.65l.27,0-.35,6,6-4.93.1.33a69.3,69.3,0,0,0-6.17,5.43,57.62,57.62,0,0,0-3.88,6.39,4.42,4.42,0,0,0-.55,2.3l.48,16.9H424.8l.47-16.25a5.94,5.94,0,0,0-1-3A66.49,66.49,0,0,0,418.68,304.37Z" style="fill:#e0e0e0"></path><path d="M160.3,285c2.15-.39,6.27,3.59,8.3,2.76,1.55-.63,1.84-4.83,3.06-6,1.68-1.57,7.75-1.47,8.44-3.66,1.43-4.52-5.3-15-9.9-16.18-3.3-.83-8.54,5.72-11.73,6.9-3,1.1-10.33-.11-12.42,2.25-2.42,2.73-2,11.52,0,14.6,1.26,2,6.21,4.46,8.51,4C156.38,289.32,158.48,285.35,160.3,285Z" style="fill:#f5f5f5"></path><path d="M156.22,279.16a42.32,42.32,0,0,0-3.67-3l.11-.34,4,2.72,1.63-4.81.27.22s-1.31,3.56-1.1,4.81c.43,2.72,6.1,8.76,6.1,8.76h0s4.07-4.64,4.83-6.52c.62-1.56.86-6.66.86-6.66l.27.05-.35,6,6-4.93.11.33a67.89,67.89,0,0,0-6.17,5.43,57.62,57.62,0,0,0-3.88,6.39,4.43,4.43,0,0,0-.55,2.31l.48,16.89h-2.82l.47-16.24a5.86,5.86,0,0,0-1-3A65.4,65.4,0,0,0,156.22,279.16Z" style="fill:#e0e0e0"></path><path d="M67.37,334.1c-2.15-.4-6.27,3.58-8.29,2.76-1.56-.64-1.85-4.83-3.07-6-1.68-1.58-7.74-1.48-8.44-3.67-1.42-4.52,5.3-15,9.9-16.18,3.3-.82,8.54,5.73,11.73,6.91,3,1.1,10.33-.12,12.42,2.24,2.42,2.74,2,11.53,0,14.61-1.26,2-6.21,4.45-8.51,4C71.29,338.41,69.19,334.43,67.37,334.1Z" style="fill:#f5f5f5"></path><path d="M71.45,328.24a46.11,46.11,0,0,1,3.67-3l-.1-.33-4,2.71-1.63-4.8-.27.22s1.31,3.56,1.11,4.81c-.44,2.71-6.11,8.76-6.11,8.76h0S60,332,59.27,330.07c-.62-1.55-.86-6.65-.86-6.65l-.27,0,.35,6-6-4.94-.11.34a67.89,67.89,0,0,1,6.17,5.43,56.7,56.7,0,0,1,3.89,6.39A4.6,4.6,0,0,1,63,339l-.49,16.9h2.82l-.47-16.25a5.89,5.89,0,0,1,1-3A68,68,0,0,1,71.45,328.24Z" style="fill:#e0e0e0"></path><path d="M439.08,344.25s-9.95-1.16-11-3.89c-.83-2.21,4.06-5.94,4.62-8.23.44-1.77-.74-5.55-.2-7.3.48-1.54,3.45-3.64,3.82-5.22.17-.74-.72-2.27-.54-3,.42-1.69,2.56-5.76,4.28-5.49,2.71.44,3.87,7.5,4,10.24,0,1-1.33,2.92-1.22,3.95.18,1.84,3.61,4.65,3.55,6.5,0,.77-1.66,1.83-1.68,2.61,0,1.4,3.11,3.53,2.75,4.88C446.82,341.64,439.08,344.25,439.08,344.25Z" style="fill:#e6e6e6"></path><path d="M439.48,329.13,439.19,318l-.4,0-.47,18.16s-3.38,1-4.54,1.18a24.74,24.74,0,0,1-2.48,0v.22s2,.14,2.61.09c.32,0,1.27-.24,1.27-.24L434,338.6l.14.16,1.59-1.43,2.62-.64-.44,16.83h2.23l-.62-24.07Z" style="fill:#e0e0e0"></path><path d="M190.54,287.75s-10-1.16-11-3.88c-.83-2.21,4.05-5.94,4.62-8.24.43-1.77-.75-5.55-.2-7.29.48-1.54,3.45-3.65,3.81-5.22.17-.75-.72-2.27-.53-3,.42-1.69,2.56-5.77,4.28-5.49,2.71.43,3.87,7.49,4,10.24,0,1-1.32,2.92-1.22,3.95.19,1.84,3.62,4.64,3.55,6.49,0,.77-1.65,1.84-1.67,2.61,0,1.4,3.11,3.53,2.74,4.89C198.27,285.14,190.54,287.75,190.54,287.75Z" style="fill:#ebebeb"></path><path d="M190.93,272.63l-.28-11.14-.4,0-.47,18.16a45,45,0,0,1-4.55,1.18,24.56,24.56,0,0,1-2.47,0v.23s2,.14,2.61.09c.32,0,1.27-.25,1.27-.25l-1.23,1.18.14.16,1.59-1.42,2.62-.65L189.33,297h2.22L190.94,273Z" style="fill:#e0e0e0"></path><path d="M87.77,320.5s-10-1.16-11-3.88c-.83-2.21,4-5.94,4.62-8.24.43-1.77-.75-5.55-.21-7.29.48-1.54,3.45-3.65,3.82-5.22.17-.75-.72-2.27-.54-3,.42-1.69,2.57-5.77,4.29-5.49,2.71.43,3.87,7.49,4,10.24,0,1-1.32,2.92-1.22,3.95.19,1.84,3.61,4.64,3.55,6.49,0,.77-1.65,1.84-1.67,2.61,0,1.4,3.1,3.53,2.74,4.89C95.51,317.89,87.77,320.5,87.77,320.5Z" style="fill:#f0f0f0"></path><path d="M88.17,305.38l-.28-11.14-.41,0L87,312.42s-3.38,1-4.55,1.19c-.61.07-2.47,0-2.47,0v.22s2,.14,2.61.09c.32,0,1.27-.25,1.27-.25l-1.23,1.18.14.16,1.59-1.42,2.62-.65-.43,16.83h2.22l-.61-24.07Z" style="fill:#e0e0e0"></path><path d="M273.93,122.87c9.58,0,36.43,4.43,36.43-11.85,0-13.83-13.12-12.81-13.12-12.81s.38-12-11.31-13.58C273.93,83,272.12,96,272.12,96s-20.82-8.25-17.65,12.44c0,0-11.54-2.3-11.54,7C242.93,125.81,264.65,122.84,273.93,122.87Z" style="fill:#f0f0f0"></path><path d="M374.2,167.41c12.69,0,48.24,5.86,48.24-15.69,0-18.32-17.38-17-17.38-17s.5-15.86-15-18c-15.88-2.17-18.27,15-18.27,15s-27.57-10.92-23.37,16.47c0,0-15.28-3-15.28,9.29C333.16,171.3,361.92,167.37,374.2,167.41Z" style="fill:#f5f5f5"></path><path d="M412.16,173.06c-7,0-26.68,3.24-26.68-8.68,0-10.13,9.61-9.39,9.61-9.39s-.28-8.77,8.29-9.94c8.78-1.2,10.11,8.29,10.11,8.29s15.25-6,12.93,9.11c0,0,8.45-1.68,8.45,5.14C434.87,175.21,419,173,412.16,173.06Z" style="fill:#ebebeb"></path><path d="M92.55,208.18c10.93,0,41.58,5,41.58-13.52,0-15.79-15-14.63-15-14.63s.44-13.67-12.91-15.49c-13.69-1.86-15.75,12.91-15.75,12.91S66.73,168,70.34,191.66c0,0-13.17-2.63-13.17,8C57.17,211.54,82,208.15,92.55,208.18Z" style="fill:#fafafa"></path><path d="M156,140.61c12.17,0,46.29,5.63,46.29-15.05,0-17.58-16.68-16.28-16.68-16.28s.48-15.23-14.37-17.25C156,90,153.68,106.4,153.68,106.4s-26.45-10.47-22.42,15.81c0,0-14.66-2.92-14.66,8.92C116.6,144.35,144.2,140.58,156,140.61Z" style="fill:#f5f5f5"></path><path d="M77.49,181.82c8.84,0,33.61,4.09,33.61-10.93,0-12.76-12.11-11.82-12.11-11.82s.35-11-10.44-12.52C77.49,145,75.82,157,75.82,157s-19.2-7.6-16.28,11.48c0,0-10.65-2.12-10.65,6.47C48.89,184.54,68.93,181.8,77.49,181.82Z" style="fill:#f5f5f5"></path></g><g id="freepik--Shadow--inject-164"><ellipse id="freepik--path--inject-164" cx="245.18" cy="412.39" rx="193.89" ry="11.32" style="fill:#f5f5f5"></ellipse></g><g id="freepik--Tree--inject-164"><path d="M219.39,244.89l17,15.76c-1.36,22.23-2.65,81.85-2.65,81.85l-6,35.79,53.18.5s-2.41-30.24-2.41-31.88-10.28-59.55-10.28-59.55l-5.85-56.24,27.42-8.36,5-14.46,20.15-11.4,9.85-15.12-3.81-.93-10.87,14-12.69,2.76,5.43-12.87h-6l-15.11,29.81-19.46,4,2.54-55c-15.57,7.28-20.55-4.84-20.55-4.84s-4,84.89-6.29,91.3h0a40.62,40.62,0,0,1-16-14.55L217,227.71h-4.83Z" style="fill:#263238"></path><g style="opacity:0.2"><path d="M219.39,244.89l17,15.76c-1.36,22.23-2.65,81.85-2.65,81.85l-6,35.79,53.18.5s-2.41-30.24-2.41-31.88-10.28-59.55-10.28-59.55l-5.85-56.24,27.42-8.36,5-14.46,20.15-11.4,9.85-15.12-3.81-.93-10.87,14-12.69,2.76,5.43-12.87h-6l-15.11,29.81-19.46,4,2.54-55c-15.57,7.28-20.55-4.84-20.55-4.84s-4,84.89-6.29,91.3h0a40.62,40.62,0,0,1-16-14.55L217,227.71h-4.83Z" style="fill:#fff"></path></g><path d="M199.3,185.65a12.14,12.14,0,0,0-13.8,17.12c-6.53.81-12.06,7.08-13.61,13.47A16.32,16.32,0,0,0,197,233.52a19.45,19.45,0,0,0,16.75,4.85,21.21,21.21,0,0,0,14.73-10.76,22.22,22.22,0,0,0,10.14-17.55c.32-5.06-1.25-10.41-5-13.87s-9.71-4.58-14-1.95a14.87,14.87,0,0,0-7.56-9.11C208.35,183.39,203.14,184.11,199.3,185.65Z" style="fill:#71DC7E"></path><g style="opacity:0.1"><path d="M199.3,185.65a12.14,12.14,0,0,0-13.8,17.12c-6.53.81-12.06,7.08-13.61,13.47A16.32,16.32,0,0,0,197,233.52a19.45,19.45,0,0,0,16.75,4.85,21.21,21.21,0,0,0,14.73-10.76,22.22,22.22,0,0,0,10.14-17.55c.32-5.06-1.25-10.41-5-13.87s-9.71-4.58-14-1.95a14.87,14.87,0,0,0-7.56-9.11C208.35,183.39,203.14,184.11,199.3,185.65Z" style="fill:#fff"></path></g><g style="opacity:0.2"><path d="M267.12,217.5l-4.93,1,2.54-55c-.89.42-1.75.76-2.58,1.06l-3.9,55.15Z" style="fill:#fff"></path><path d="M292.7,206l-7.3,14.14L253.79,230l1.62,29s3.24-8.72,3.24-7.59,1.62,47.24,1.62,47.24L265.51,338l-4.6,40.64,19.94.19s-2.41-30.24-2.41-31.88-10.28-59.55-10.28-59.55l-5.85-56.24,27.42-8.36,5-14.46,20.15-11.4,9.85-15.12-2.34-.57c-4.11,6.17-9.88,15.48-9.88,15.48Z" style="fill:#fff"></path></g><path d="M321.38,116.62c-16.83-15-37.94-20.13-53.42-14.53a13.92,13.92,0,0,1-13.37-2.1c-18.74-15.32-49.09-17.14-61.68-2.68a28.56,28.56,0,0,0-3.61,5.19,18.71,18.71,0,0,1-7.44,7.37,21.15,21.15,0,0,0-5.72,4.62c-4,4.59-5.73,10.58-5.42,17a4.62,4.62,0,0,1-3.13,4.46,21.5,21.5,0,0,0-8.65,6c-10.2,11.71-5.7,32.57,10.05,46.61,14,12.5,32.27,15.36,43.29,7.55a3,3,0,0,1,3.32,0c7.93,5.39,17.15,5.43,21.94-.42h0a2.94,2.94,0,0,1,3.9-.4c8.17,6.19,18.06,6.54,23.09.4a12.28,12.28,0,0,0,2.05-3.63,2.7,2.7,0,0,1,3.35-1.44c5.35,1.62,10.6.92,14.17-2.27a2.85,2.85,0,0,1,3-.41c18.34,8.29,37.66,6.69,48.42-5.66C349.89,165.75,343.55,136.38,321.38,116.62Z" style="fill:#71DC7E"></path><path d="M321.38,116.62c-16.83-15-37.94-20.13-53.42-14.53a13.92,13.92,0,0,1-13.37-2.1c-18.74-15.32-49.09-17.14-61.68-2.68a28.56,28.56,0,0,0-3.61,5.19,18.71,18.71,0,0,1-7.44,7.37,21.15,21.15,0,0,0-5.72,4.62c-4,4.59-5.73,10.58-5.42,17a4.62,4.62,0,0,1-3.13,4.46,21.5,21.5,0,0,0-8.65,6c-10.2,11.71-5.7,32.57,10.05,46.61,14,12.5,32.27,15.36,43.29,7.55a3,3,0,0,1,3.32,0c7.93,5.39,17.15,5.43,21.94-.42h0a2.94,2.94,0,0,1,3.9-.4c8.17,6.19,18.06,6.54,23.09.4a12.28,12.28,0,0,0,2.05-3.63,2.7,2.7,0,0,1,3.35-1.44c5.35,1.62,10.6.92,14.17-2.27a2.85,2.85,0,0,1,3-.41c18.34,8.29,37.66,6.69,48.42-5.66C349.89,165.75,343.55,136.38,321.38,116.62Z" style="opacity:0.1"></path><path d="M292.2,149.69a14.87,14.87,0,0,0-16.9,20.95c-8,1-14.74,8.66-16.65,16.48a20,20,0,0,0,30.79,21.15,23.79,23.79,0,0,0,20.49,5.93A25.94,25.94,0,0,0,328,201a27.15,27.15,0,0,0,12.4-21.47c.4-6.2-1.52-12.74-6.06-17S322.41,157,317.1,160.2c-1.6-4.79-4.66-9-9.25-11.15S296.89,147.81,292.2,149.69Z" style="fill:#71DC7E"></path><g style="opacity:0.2"><path d="M292.2,149.69a14.87,14.87,0,0,0-16.9,20.95c-8,1-14.74,8.66-16.65,16.48a20,20,0,0,0,30.79,21.15,23.79,23.79,0,0,0,20.49,5.93A25.94,25.94,0,0,0,328,201a27.15,27.15,0,0,0,12.4-21.47c.4-6.2-1.52-12.74-6.06-17S322.41,157,317.1,160.2c-1.6-4.79-4.66-9-9.25-11.15S296.89,147.81,292.2,149.69Z" style="fill:#fff"></path></g><g style="opacity:0.2"><path d="M292.2,149.69a14.87,14.87,0,0,0-16.9,20.95c-8,1-14.74,8.66-16.65,16.48a20,20,0,0,0,30.79,21.15,23.79,23.79,0,0,0,20.49,5.93A25.94,25.94,0,0,0,328,201a27.15,27.15,0,0,0,12.4-21.47c.4-6.2-1.52-12.74-6.06-17S322.41,157,317.1,160.2c-1.6-4.79-4.66-9-9.25-11.15S296.89,147.81,292.2,149.69Z" style="fill:#fff"></path></g><path d="M254.14,381.49s-25.11-67.2-18.72-26.77c0,0-28.51-19.36-13.62,6.92,0,0-30.64-8.2-14,10.1,0,0-26,7.59-9.79,9.75S254.14,381.49,254.14,381.49Z" style="fill:#71DC7E"></path><path d="M254.14,381.49s-25.11-67.2-18.72-26.77c0,0-28.51-19.36-13.62,6.92,0,0-30.64-8.2-14,10.1,0,0-26,7.59-9.79,9.75S254.14,381.49,254.14,381.49Z" style="fill:#fff;opacity:0.2"></path><path d="M246.86,381.62s8-46.87,23.37-31.48c0,0,11.49-8,16.09,6.19,0,0,16.47-5,10.34,2.69,0,0,10,2.29,6.51,10.72,0,0,9.58,0,7.66,7.66S246.86,381.62,246.86,381.62Z" style="fill:#71DC7E"></path><path d="M246.86,381.62s8-46.87,23.37-31.48c0,0,11.49-8,16.09,6.19,0,0,16.47-5,10.34,2.69,0,0,10,2.29,6.51,10.72,0,0,9.58,0,7.66,7.66S246.86,381.62,246.86,381.62Z" style="fill:#fff;opacity:0.30000000000000004"></path></g><g id="freepik--Tablecloth--inject-164"><polygon points="358.85 405.52 141.15 405.52 115.24 416.8 384.76 416.8 358.85 405.52" style="fill:#71DC7E"></polygon><polygon points="358.85 405.52 141.15 405.52 115.24 416.8 384.76 416.8 358.85 405.52" style="fill:#fff;opacity:0.8"></polygon></g><g id="freepik--character-3--inject-164"><path d="M400.11,285.38s10.08-3.41,12.71-5.57c2.95-2.43,8.11-12.23,8.11-12.23l1.09-7.27,2.18-1a2.85,2.85,0,0,1,3.87,1.59l1.46,3.89-.85,3.52-3.63,2.3s-6.66,16.83-8.72,18.16-13.2,5.93-13.2,5.93Z" style="fill:#ffb573"></path><path d="M389.57,292.52c-.8-4.21,2-5.45,14.9-10l2.72,12.54S391,300.15,389.57,292.52Z" style="fill:#71DC7E"></path><path d="M403,296.1c-6.91-1-8.25-6.47-8.25-6.47l-4-1.1h0l-1.1,1.67a4.82,4.82,0,0,0,0,2.31C390.54,297.61,398.06,297,403,296.1Z" style="opacity:0.1"></path><polygon points="393.57 395.69 395.14 406.1 401.2 406.1 401.2 396.65 393.57 395.69" style="fill:#ffb573"></polygon><path d="M400.8,405.35l-6.6.16a.53.53,0,0,0-.51.43l-1.06,5.39a.88.88,0,0,0,.69,1,.55.55,0,0,0,.18,0c2.38-.1,4.49-.28,7.45-.34,3.49-.09,2.62.35,6.72.31,2.48,0,2.86-2.85,1.81-3-4.81-.49-5.35-1.93-7.24-3.6A2.14,2.14,0,0,0,400.8,405.35Z" style="fill:#263238"></path><path d="M392.66,327.76A139.75,139.75,0,0,1,401.92,365a337,337,0,0,1,1.46,38.32H393s-1.63-26.7-16.16-51.58c0,0-12-10.35-11.26-24Z" style="fill:#263238"></path><path d="M379.92,357.34c3.39-9.08.75-20.68.75-20.68l-3.81,1.63-1.27,3.82s-.19,3.94-.15,8.26c.87.88,1.42,1.36,1.42,1.36Q378.5,354.55,379.92,357.34Z" style="opacity:0.5"></path><polygon points="350.58 395.69 347.07 402.71 353.01 405.13 357.61 398.83 350.58 395.69" style="fill:#ffb573"></polygon><path d="M353.73,403.28l-6.25-2.12a.53.53,0,0,0-.62.23l-2.85,4.7a.88.88,0,0,0,.28,1.21.65.65,0,0,0,.17.08c2.27.73,4.31,1.28,7.12,2.24,3.3,1.12,2.33,1.23,6.2,2.61,2.33.82,3.67-1.7,2.72-2.17-4.36-2.11-4.36-3.64-5.57-5.87A2.11,2.11,0,0,0,353.73,403.28Z" style="fill:#263238"></path><path d="M382.13,327.76s.18,36.87-23.8,74.28l-10.53-4.18s11.06-21.72,10.17-45.4c-.73-19.25,2.36-24.7,2.36-24.7Z" style="fill:#263238"></path><path d="M358.46,292.56a303,303,0,0,1,.78,36.29s14,3.81,34.69,0c0,0,3.76-29,1-41.73a1.4,1.4,0,0,0-1.43-1.09c-4.35.18-20.28,1.07-33.72,4.64A1.81,1.81,0,0,0,358.46,292.56Z" style="fill:#71DC7E"></path><path d="M370.17,288.46s5.9,6.61,12.38,5.15,0-6.79,0-6.79-1.19-1.52-.18-9.61L373.65,275S373,287.94,370.17,288.46Z" style="fill:#ffb573"></path><path d="M382.37,277.21,373.65,275s-.13,2.78-.56,5.82a12.43,12.43,0,0,0,4.44,4,11.7,11.7,0,0,0,4.87,1.69C382.11,285.73,381.6,283.4,382.37,277.21Z" style="opacity:0.1"></path><path d="M358.94,299.45c.19,3.31.38,7.4.48,11.88a28.36,28.36,0,0,0,5-12.89l-3.28-1.1Z" style="opacity:0.1"></path><path d="M350.8,297.34s-10.17,7.09-12.44,11.67,8.71,21.53,8.71,21.53l.55,5.75.24,1a1.9,1.9,0,0,0,3,1.09L354.1,336a3.21,3.21,0,0,0,1.26-3.14l-.48-2.76L350.8,327s-4.94-13.53-3.93-15.16,7.65-5.09,7.65-5.09Z" style="fill:#ffb573"></path><path d="M364.08,295.08c-.69-2.58-2.64-5.22-7.41-3a41.92,41.92,0,0,0-9.05,5.47L353,308.82S366.79,305.16,364.08,295.08Z" style="fill:#71DC7E"></path><path d="M380.66,259.43s5.77-.28,6.18-5C386.84,254.48,392.31,262.37,380.66,259.43Z" style="fill:#263238"></path><path d="M368.42,270.86c2.39,7.61,2.7,9.45,7.58,12.44,7.35,4.5,16.17-.11,16.1-8.27-.07-7.35-3.44-17.18-11.76-18.33a10.87,10.87,0,0,0-11.92,14.16Z" style="fill:#ffb573"></path><path d="M384.08,270.34c.12.58-.09,1.09-.45,1.17s-.77-.32-.89-.88.09-1.09.46-1.16S384,269.78,384.08,270.34Z" style="fill:#263238"></path><path d="M389.15,268.68c.11.58-.09,1.09-.46,1.17s-.76-.32-.89-.88.09-1.09.46-1.16S389,268.12,389.15,268.68Z" style="fill:#263238"></path><path d="M386.55,269.19a16.06,16.06,0,0,0,3,3.23,2.67,2.67,0,0,1-2,.91Z" style="fill:#ed893e"></path><path d="M380.51,268.72a.37.37,0,0,1-.53-.48,3.63,3.63,0,0,1,2.72-2,.35.35,0,0,1,.39.3v0a.36.36,0,0,1-.32.4h0a3,3,0,0,0-2.11,1.63A.33.33,0,0,1,380.51,268.72Z" style="fill:#263238"></path><path d="M389.3,265.24a.39.39,0,0,0,.28-.25.38.38,0,0,0-.24-.47,3.63,3.63,0,0,0-3.37.5.36.36,0,0,0-.07.49l0,0a.36.36,0,0,0,.51.05h0a3,3,0,0,1,2.64-.35A.33.33,0,0,0,389.3,265.24Z" style="fill:#263238"></path><path d="M389.2,275.26a39.56,39.56,0,0,0-7.46,1.21c1,1.49,2.48,2.54,5.26,1.92a2.59,2.59,0,0,0,2.24-2.89C389.23,275.42,389.21,275.34,389.2,275.26Z" style="fill:#263238"></path><path d="M387,278.39a5.18,5.18,0,0,1-3.21-.14,3.18,3.18,0,0,1,1.49-.71,5.59,5.59,0,0,1,3.24.07A2.57,2.57,0,0,1,387,278.39Z" style="fill:#ba4d3c"></path><path d="M383.47,276.93a1.58,1.58,0,0,1-1.4-.53c1.5-.33,2.74-.57,3.73-.74s2.15-.3,3.23-.39a1.15,1.15,0,0,1-.67,1A29.93,29.93,0,0,1,383.47,276.93Z" style="fill:#fff"></path><path d="M374.16,275a4.92,4.92,0,0,0,.57-5.58,4.21,4.21,0,0,1,1.86-6c3-1.62,14.76-5.14,5.88-12.22A22.28,22.28,0,0,1,372.32,256c-5.95,1-8.84,5.08-8.2,8.24,0,0-3.67,3.09,1.26,10.52,5.89,8.9,8.42,7.16,8.15,4.44A6.81,6.81,0,0,1,374.16,275Z" style="fill:#263238"></path><path d="M369.88,276.9a6,6,0,0,0,3.76,2.56c2.06.4,2.92-1.47,2.22-3.32-.63-1.66-2.46-3.89-4.45-3.46A2.66,2.66,0,0,0,369.88,276.9Z" style="fill:#ffb573"></path><path d="M411.87,212s-18.34,8.09-16.84,18.15,22.15,4.74,22.15,4.74Z" style="fill:#71DC7E"></path><path d="M411.87,212s-18.34,8.09-16.84,18.15,22.15,4.74,22.15,4.74Z" style="fill:#fff;opacity:0.6000000000000001"></path><path d="M417.56,233.9c-3.68.87-5.79-6.66-6.41-9.39-.54-2.35-2-9.06.21-10.95,4.24-3.61,7.2,7,7.74,9.08C419.65,225.28,421.31,233,417.56,233.9Z" style="fill:#71DC7E"></path><path d="M417.56,233.9c-3.68.87-5.79-6.66-6.41-9.39-.54-2.35-2-9.06.21-10.95,4.24-3.61,7.2,7,7.74,9.08C419.65,225.28,421.31,233,417.56,233.9Z" style="fill:#fff;opacity:0.30000000000000004"></path><path d="M420.08,222.09c-.76-2.9-3.2-11.62-7.79-10.53s-3,10-2.28,12.9c.63,2.67,2.74,9.87,6.46,10.56l8.13,34.5a1.31,1.31,0,0,0,2.55-.6L419,234.42C422,232.16,420.62,224.68,420.08,222.09ZM417.35,233c-3.48.82-5.47-6.3-6.06-8.88-.51-2.22-1.89-8.56.2-10.35,4-3.42,6.8,6.62,7.32,8.58C419.33,224.89,420.89,232.2,417.35,233Z" style="fill:#263238"></path><path d="M433.17,220.17S428,217.42,431,216s4.16.87,4.16.87,2.17-7,5.84-5.09-2.84,6.43-2.84,6.43,6.36,4.21,4.1,5.94-6.4-2.61-6.4-2.61.64,2.83-2.7,3S433.17,220.17,433.17,220.17Z" style="fill:#71DC7E"></path><path d="M438.57,218.13s4.47-1.33,4.25-2.27S441.28,217.23,438.57,218.13Z" style="fill:#71DC7E"></path><path d="M439,218.24s4.56-1,4.82-.08S441.84,217.71,439,218.24Z" style="fill:#71DC7E"></path><path d="M436.17,217.33s2.13-5.79,3.88-4.75S436.17,217.33,436.17,217.33Z" style="fill:#fff;opacity:0.4"></path><path d="M437.17,219.38s5.59,2.65,4.29,3.83S437.17,219.38,437.17,219.38Z" style="fill:#fff;opacity:0.4"></path></g><g id="freepik--character-1--inject-164"><path d="M146.68,374.28c9.48.53,17-1.45,35.61,3.53s22.77,9.77,21.9,15.12c-1.25,7.66-12.22,9.84-26.46,8.06s-41.11-3.37-41.11-3.37L133,370.72s5.14-4.8,8.06-3.81C143.22,367.63,145.43,374.21,146.68,374.28Z" style="fill:#71DC7E"></path><path d="M146.68,374.28c9.48.53,17-1.45,35.61,3.53s22.77,9.77,21.9,15.12c-1.25,7.66-12.22,9.84-26.46,8.06s-41.11-3.37-41.11-3.37L133,370.72s5.14-4.8,8.06-3.81C143.22,367.63,145.43,374.21,146.68,374.28Z" style="opacity:0.1"></path><polygon points="119.87 400.59 107.45 401.66 100.59 408.1 122.69 412.06 119.87 400.59" style="fill:#ffb573"></polygon><polygon points="119.87 400.59 107.45 401.66 100.59 408.1 122.69 412.06 119.87 400.59" style="opacity:0.2"></polygon><path d="M102.61,407.74l7.11-7.95a.86.86,0,0,0,.06-1.08l-5.19-7.22a1.4,1.4,0,0,0-2.21-.15c-2.52,2.92-4.64,5.61-7.84,9.17-3.77,4.22-3.32,2.7-7.82,7.59-2.71,2.95.2,6.53,1.49,5.41,5.91-5.14,8.2-4.18,12.27-4.56A3.44,3.44,0,0,0,102.61,407.74Z" style="fill:#263238"></path><path d="M106.05,372.7a22.56,22.56,0,0,1-.32,8.34c-1.18,5.8-3.85,13.81.4,21.35,7.91,14,33.62,10.27,50.44,10.27s46.48,0,46.48-13.26-33.46-13.29-38.78-13.73-22.14-1.1-22.14-1.1-3.56-5.14-4.75-14.84C137.38,369.73,121,362,106.05,372.7Z" style="fill:#71DC7E"></path><path d="M139.3,319.27,153,336.53l18-21.68,10-3.26,6,2.84-1.59,7.4-13.55-.29s-12.63,28.18-19.4,26.33S132,327,132,327Z" style="fill:#ffb573"></path><path d="M134,311.72c2.89,2,7.57,6.4,13.05,15.36a21.34,21.34,0,0,1-8.45,10.77s-14-15.16-9.92-24.76A3.55,3.55,0,0,1,134,311.72Z" style="fill:#263238"></path><path d="M128.5,313.58l5.39,1.31,1.58.81s6.92,13.61,10.91,13.06a21,21,0,0,1-7.78,9.09S125,323.2,128.5,313.58Z" style="opacity:0.6000000000000001"></path><path d="M127.69,310.18a61.45,61.45,0,0,0-31.85,12.75,7.22,7.22,0,0,0-2.49,7.93c2.85,8.94,10.81,29.82,12,45.44,0,0,24.05,7.62,39.28-7.84,0,0-1.79-7.46-3.84-17.33a21.75,21.75,0,0,1,.44-10.66,19.64,19.64,0,0,0-.76-13.68c-2.22-5-4.21-9.4-5.58-12.43A7.2,7.2,0,0,0,127.69,310.18Z" style="fill:#263238"></path><path d="M102.83,318.24a61.54,61.54,0,0,1,19.3-7.28c1.44.94,4.2,3.89-.53,11.29C121.6,322.25,106.34,321,102.83,318.24Z" style="fill:#71DC7E"></path><path d="M90.66,287.17c-2.7,3.57-1.52,8.85-.6,11.93s.25-.07-.13,5.93,2.74,11.76,10.39,8,12.31-3.08,18.06-3.29,15-9.36,9.77-14.65-8-8.91-6.75-11.71,2.72-11.91-4.31-11.78-4.76-3.9-12.62-1.86S82.81,280.54,90.66,287.17Z" style="fill:#263238"></path><path d="M103.46,300l10.22,4.85c.24,3.08.81,6.65,4,6.73a12.41,12.41,0,0,0,2.91-.33c2,.87,4.12,3.3.36,10,0,0-14.67-1.47-16.61-3.85a5.92,5.92,0,0,0,1.79-1.31C109.2,312.63,105.77,304.2,103.46,300Z" style="fill:#ffb573"></path><path d="M107,302.09l6.77,2.82a15.87,15.87,0,0,0,.39,2.74c-2.1.35-5.7-.47-6.59-2.5A8.87,8.87,0,0,1,107,302.09Z" style="opacity:0.2;isolation:isolate"></path><path d="M96.67,331.19l4.47.43s2.74,14.81.46,25.17c-2-7.26-4.32-14.26-6.17-19.7Z" style="opacity:0.6000000000000001"></path><path d="M87.48,341.7l-4.08,23-7.64,39.86-7.35-.93-5.36,4.75,2.12,2.5,11-.73c2.15-.14,4.39-.29,6-6.19,2.13-7.85,10.28-37.32,10.28-37.32L99.1,344.2Z" style="fill:#ffb573"></path><path d="M95.84,322.93s-8.77,6.46-11.76,29.16c0,0,4.2,2.69,13.15,3.14C97.23,355.23,107.63,330.05,95.84,322.93Z" style="fill:#263238"></path><path d="M96,293.18c4.11,7.17,5.7,10.29,11.31,12.24,8.44,2.93,16.35-3.68,14.47-11.94-1.7-7.43-8.14-17.91-16.83-17.28a11.27,11.27,0,0,0-9,17Z" style="fill:#ffb573"></path><path d="M97.22,301.16a6,6,0,0,0,4.41,1.33c2.11-.22,2.38-2.29,1.14-3.88-1.11-1.41-3.55-3-5.35-2a2.73,2.73,0,0,0-.93,3.75A3,3,0,0,0,97.22,301.16Z" style="fill:#ffb573"></path><path d="M95.43,276.69c-.74,2.74,3.9,6.2,11,3.81,5.37-1.79,13.8,2.21,11.53-4C116,270.89,101.49,271.85,95.43,276.69Z" style="fill:#263238"></path><path d="M113.74,288.26a17.87,17.87,0,0,0,4.05,2.78,2.87,2.87,0,0,1-1.94,1.47Z" style="fill:#ed893e"></path><path d="M104,288.07h-.17a.33.33,0,0,1-.22-.41h0A3.82,3.82,0,0,1,106,285a.34.34,0,0,1,.41.22.32.32,0,0,1-.21.4,3.21,3.21,0,0,0-1.93,2.2A.33.33,0,0,1,104,288.07Z" style="fill:#263238"></path><path d="M116.82,281.86h-.17a3.17,3.17,0,0,0-2.85.57.32.32,0,0,1-.46,0h0a.33.33,0,0,1,0-.47,3.85,3.85,0,0,1,3.46-.73.32.32,0,0,1,.25.38.33.33,0,0,1-.25.26Z" style="fill:#263238"></path><path d="M109,289.36c.29.6.85.93,1.25.74s.47-.84.17-1.44-.86-.93-1.25-.74S108.7,288.76,109,289.36Z" style="fill:#263238"></path><path d="M115.81,286c.29.6.85.93,1.24.74s.47-.84.18-1.45-.86-.93-1.25-.73S115.5,285.39,115.81,286Z" style="fill:#263238"></path><path d="M115.82,284.67l1.24-1.13S116.87,285,115.82,284.67Z" style="fill:#263238"></path><path d="M109,288l1.24-1.13S110.07,288.41,109,288Z" style="fill:#263238"></path><path d="M99.86,277.35c4.56,1.86,3.48,7.83,2.31,10.69s-3.38,5.85-.25,8.77,7.23,12.19-.15,12.37-10.2-11.45-9.64-17.32S94.43,275.14,99.86,277.35Z" style="fill:#263238"></path><path d="M115.93,278.52s-8.23-3.39-13.8,1.11c-6.62,5.35-4.36,13.64-4.36,13.64L96.12,289s-1.2-7.7,4.62-12.08c6-4.51,14.08-.19,14.08-.19Z" style="fill:#71DC7E"></path><path d="M115.72,296.35a5.45,5.45,0,0,0,1-.4.2.2,0,0,0,.1-.26h0a.2.2,0,0,0-.25-.09,5.32,5.32,0,0,1-4.79,0,.2.2,0,0,0-.27.06.19.19,0,0,0,.06.27A5.56,5.56,0,0,0,115.72,296.35Z" style="fill:#263238"></path><path d="M181.81,316.1c.39,3,1.73,5.22,4.69,4.83a5.4,5.4,0,0,0-1.43-10.71C182.11,310.61,181.41,313.15,181.81,316.1Zm1.36-.18c-.28-2.09.21-3.88,2.31-4.16a3.82,3.82,0,1,1,1,7.57C184.4,319.61,183.45,318,183.17,315.92Z" style="fill:#71DC7E"></path><path d="M184.68,319a2.52,2.52,0,0,0,1.81.36,3.82,3.82,0,1,0-1-7.57,3.12,3.12,0,0,0-.8.22v-1.67a2.23,2.23,0,0,1,.39-.09,5.4,5.4,0,0,1,1.43,10.71,4.1,4.1,0,0,1-1.82-.14Z" style="opacity:0.2"></path><path d="M191.21,308.34h4.17a3.74,3.74,0,0,1,3.74,3.74v12.49a0,0,0,0,1,0,0H186.47a0,0,0,0,1,0,0V313.08A4.74,4.74,0,0,1,191.21,308.34Z" transform="translate(385.59 632.92) rotate(180)" style="fill:#71DC7E"></path></g><g id="freepik--Basket--inject-164"><path d="M195.35,393.76c-2.54,2.42-7.84-4.81-15.43-12.73s-14.58-13.55-12-16,11.7,1.11,19.29,9S197.88,391.34,195.35,393.76Z" style="fill:#71DC7E"></path><path d="M195.35,393.76c-2.54,2.42-7.84-4.81-15.43-12.73s-14.58-13.55-12-16,11.7,1.11,19.29,9S197.88,391.34,195.35,393.76Z" style="fill:#fff;opacity:0.30000000000000004"></path><path d="M195.35,393.76a3.67,3.67,0,0,0,.85-2.65c-4.74,4.08-20.64-16.68-25.2-21.33-2.84-2.9-2.35-4.54-1.45-5.41a2.94,2.94,0,0,0-1.68.69c-2.53,2.42,4.46,8,12,16S192.81,396.18,195.35,393.76Z" style="opacity:0.2"></path><g style="opacity:0.30000000000000004"><path d="M183.58,370.77c-.93-.76-1.85-1.47-2.76-2.1-2.1,0-4.39.13-4.42.91C176.37,370.55,180.71,370.74,183.58,370.77Z" style="fill:#fff"></path><path d="M188.93,376.08c-.57-.67-1.15-1.33-1.77-2l-.08-.08c-2.28-.11-6.06-.14-6.09.86S186.16,376.08,188.93,376.08Z" style="fill:#fff"></path><path d="M192.06,380.28c-2.12,0-4.52.12-4.54.91s3.09,1.09,5.78,1.17C192.92,381.67,192.52,381,192.06,380.28Z" style="fill:#fff"></path></g><path d="M218.84,366a3.34,3.34,0,0,1-1.76-2.94v-3.55h1.48v-3.94H206.43v3.94h1.48V363a3.34,3.34,0,0,1-1.76,2.94h0a7.94,7.94,0,0,0-4.22,7v16.34h21.12V373a8,8,0,0,0-4.21-7Z" style="fill:#71DC7E"></path><path d="M218.84,366a3.34,3.34,0,0,1-1.76-2.94v-3.55h1.48v-3.94H206.43v3.94h1.48V363a3.34,3.34,0,0,1-1.76,2.94h0a7.94,7.94,0,0,0-4.22,7v16.34h21.12V373a8,8,0,0,0-4.21-7Z" style="fill:#fff;opacity:0.7000000000000001"></path><path d="M217.08,359.51h-9.17V363a3.44,3.44,0,0,1-.15,1h9.47a3.44,3.44,0,0,1-.15-1Z" style="opacity:0.1"></path><polygon points="196.22 366.9 197.97 366.9 196.87 372.42 196.22 366.9" style="fill:#263238"></polygon><path d="M202,369.16a5.76,5.76,0,0,0-5.16,1.92,5.76,5.76,0,0,0-5.16-1.92c-3.41.63-5.49,4.77-4.66,9.24s4.27,7.59,7.67,7a5,5,0,0,0,2.15-1,5,5,0,0,0,2.15,1c3.4.63,6.83-2.48,7.67-7S205.44,369.79,202,369.16Z" style="fill:#71DC7E"></path><path d="M202,369.16a5.76,5.76,0,0,0-5.16,1.92,5.76,5.76,0,0,0-5.16-1.92c-3.41.63-5.49,4.77-4.66,9.24s4.27,7.59,7.67,7a5,5,0,0,0,2.15-1,5,5,0,0,0,2.15,1c3.4.63,6.83-2.48,7.67-7S205.44,369.79,202,369.16Z" style="opacity:0.30000000000000004"></path><path d="M197.1,369.63s2.13-6.52,8.39-3.43C205.49,366.2,205.16,370,197.1,369.63Z" style="fill:#71DC7E"></path><path d="M197.1,369.63s2.13-6.52,8.39-3.43C205.49,366.2,205.16,370,197.1,369.63Z" style="fill:#fff;opacity:0.5"></path><path d="M138,358.62h44a1.87,1.87,0,0,1,1.87,1.87v1.26a1.88,1.88,0,0,1-1.88,1.88H138a1.87,1.87,0,0,1-1.87-1.87v-1.26A1.88,1.88,0,0,1,138,358.62Z" transform="translate(425.56 68.76) rotate(66.15)" style="fill:#71DC7E"></path><path d="M138,358.62h44a1.87,1.87,0,0,1,1.87,1.87v1.26a1.88,1.88,0,0,1-1.88,1.88H138a1.87,1.87,0,0,1-1.87-1.87v-1.26A1.88,1.88,0,0,1,138,358.62Z" transform="translate(425.56 68.76) rotate(66.15)" style="fill:#fff;opacity:0.30000000000000004"></path><path d="M217.6,413.76H180.23a5.87,5.87,0,0,1-5.84-5.35l-2.2-25.22h53.45l-2.21,25.22A5.85,5.85,0,0,1,217.6,413.76Z" style="fill:#71DC7E"></path><path d="M217.6,413.76H180.23a5.87,5.87,0,0,1-5.84-5.35l-2.2-25.22h53.45l-2.21,25.22A5.85,5.85,0,0,1,217.6,413.76Z" style="fill:#fff;opacity:0.5"></path><path d="M186.06,395.36h-1.8v-1.68l1.82,0a.82.82,0,0,0,0-1.64h-1.82v-1.83a.82.82,0,0,0-1.64,0V392h-1.68v-1.8a.82.82,0,0,0-1.64,0V392h-1.8a.82.82,0,0,0,0,1.64h1.8v1.68h-1.82a.82.82,0,0,0,0,1.64h1.82v1.83a.82.82,0,0,0,1.64,0V397h1.68v1.81a.82.82,0,0,0,1.64,0V397h1.8A.82.82,0,0,0,186.06,395.36Zm-5.12,0v-1.68h1.68v1.68Z" style="opacity:0.1"></path><path d="M202.73,395.36h-1.8v-1.68l1.82,0a.82.82,0,0,0,0-1.64h-1.82v-1.83a.82.82,0,0,0-1.64,0V392h-1.68v-1.8a.82.82,0,0,0-1.64,0V392h-1.8a.82.82,0,0,0,0,1.64H196v1.68h-1.82a.82.82,0,0,0,0,1.64H196v1.83a.82.82,0,0,0,1.64,0V397h1.68v1.81a.82.82,0,0,0,1.64,0V397h1.8A.82.82,0,0,0,202.73,395.36Zm-5.12,0v-1.68h1.68v1.68Z" style="opacity:0.1"></path><path d="M194.38,406.86h-1.8v-1.68l1.83,0a.82.82,0,0,0,0-1.64l-1.83,0v-1.82a.82.82,0,0,0-1.64,0v1.81h-1.67v-1.8a.82.82,0,0,0-1.64,0v1.79h-1.8a.82.82,0,0,0,0,1.64h1.8v1.68H185.8a.82.82,0,0,0,0,1.64h1.83v1.83a.82.82,0,0,0,1.64,0v-1.82h1.67v1.81a.82.82,0,0,0,1.64,0v-1.8h1.8A.82.82,0,0,0,194.38,406.86Zm-5.11,0v-1.68h1.67v1.68Z" style="opacity:0.1"></path><path d="M210.91,406.86h-1.8v-1.68l1.82,0a.82.82,0,0,0,0-1.64l-1.82,0v-1.82a.82.82,0,0,0-1.64,0v1.81h-1.68v-1.8a.82.82,0,0,0-1.63,0v1.79h-1.81a.82.82,0,0,0,0,1.64h1.81v1.68h-1.83a.82.82,0,0,0,0,1.64h1.83v1.83a.82.82,0,0,0,1.63,0v-1.82h1.68v1.81a.82.82,0,0,0,1.64,0v-1.8h1.8A.82.82,0,0,0,210.91,406.86Zm-5.12,0v-1.68h1.68v1.68Z" style="opacity:0.1"></path><path d="M219.4,395.36h-1.8v-1.68l1.82,0a.82.82,0,0,0,0-1.64H217.6v-1.83a.82.82,0,0,0-1.64,0V392h-1.68v-1.8a.82.82,0,0,0-1.64,0V392h-1.8a.82.82,0,0,0,0,1.64h1.8v1.68h-1.82a.82.82,0,0,0,0,1.64h1.82v1.83a.82.82,0,0,0,1.64,0V397H216v1.81a.82.82,0,0,0,1.64,0V397h1.8A.82.82,0,0,0,219.4,395.36Zm-5.12,0v-1.68H216v1.68Z" style="opacity:0.1"></path><polygon points="172.58 387.69 225.25 387.69 225.64 383.19 172.19 383.19 172.58 387.69" style="opacity:0.1"></polygon><rect x="168.35" y="380.68" width="61.13" height="5.01" rx="1.88" style="fill:#71DC7E"></rect><rect x="168.35" y="380.68" width="61.13" height="5.01" rx="1.88" style="fill:#fff;opacity:0.5"></rect></g></svg>